<svg width="30" height="30" viewBox="0 0 30 30" fill="none" xmlns="http://www.w3.org/2000/svg">
<path d="M11.25 8.75C11.25 7.75544 11.6451 6.80161 12.3483 6.09835C13.0516 5.39509 14.0054 5 15 5V5C15.9946 5 16.9484 5.39509 17.6517 6.09835C18.3549 6.80161 18.75 7.75544 18.75 8.75V8.75M11.25 8.75H18.75M11.25 8.75H7.5M18.75 8.75H22.5M25 8.75H22.5M5 8.75H7.5M7.5 8.75V22.5C7.5 23.163 7.76339 23.7989 8.23223 24.2678C8.70107 24.7366 9.33696 25 10 25H20C20.663 25 21.2989 24.7366 21.7678 24.2678C22.2366 23.7989 22.5 23.163 22.5 22.5V8.75" stroke="#565656" stroke-width="2" stroke-linecap="round" stroke-linejoin="round"/>
</svg>
