<svg width="30" height="30" viewBox="0 0 30 30" fill="none" xmlns="http://www.w3.org/2000/svg">
<path d="M1.73807 28.2568L1.74317 28.2619C1.87834 28.398 2.0391 28.5061 2.2162 28.58C2.3933 28.6538 2.58325 28.6919 2.77512 28.6921C2.93657 28.6919 3.0969 28.6653 3.24973 28.6133L11.5704 25.7907L27.5372 9.82388C28.5133 8.84771 29.0616 7.52376 29.0615 6.14329C29.0615 4.76283 28.513 3.43893 27.5369 2.46284C26.5607 1.48675 25.2367 0.938416 23.8563 0.938477C22.4758 0.938537 21.1519 1.48698 20.1758 2.46316L4.20902 18.43L1.38668 26.7504C1.29778 27.0091 1.28359 27.2877 1.34574 27.5541C1.40789 27.8205 1.54386 28.0641 1.73807 28.2568V28.2568ZM21.5017 3.78896C22.1271 3.16841 22.9728 2.82094 23.8538 2.82263C24.7347 2.82432 25.5791 3.17504 26.2021 3.79799C26.825 4.42093 27.1757 5.26534 27.1774 6.14631C27.179 7.02728 26.8315 7.87301 26.211 8.49832L24.1113 10.598L19.402 5.88861L21.5017 3.78896ZM5.84438 19.4463L18.0762 7.21441L22.7855 11.9238L10.5537 24.1556L3.42668 26.5733L5.84438 19.4463Z" fill="#565656"/>
</svg>
